<svg xmlns="http://www.w3.org/2000/svg" fill="currentColor" viewBox="0 0 24 24"
     stroke-width="1.5" stroke="currentColor" class="">
    <path stroke-linecap="round" stroke-linejoin="round"
          d="M11.48 3.5a.562.562 0 0 1 1.04 0l2.125 5.11a.563.563 0 0 0 .475.346l5.518.441c.5.04.702.663.32 1.012l-4.204 3.601a.563.563 0 0 0-.182.558l1.285 5.384a.562.562 0 0 1-.84.611l-4.725-2.886a.562.562 0 0 0-.586 0l-4.725 2.886a.562.562 0 0 1-.84-.61l1.285-5.385a.563.563 0 0 0-.182-.558L2.553 10.41a.562.562 0 0 1 .32-1.011l5.518-.441a.563.563 0 0 0 .475-.346l2.125-5.11Z"/>
</svg>